<svg width="118" height="30" viewBox="0 0 118 30" fill="none" xmlns="http://www.w3.org/2000/svg">
<path d="M30.833 24V21.4678H34.255V10.6088H30.833V8.07661H41.0988V10.6088H37.6769V21.4678H41.0988V24H30.833ZM42.915 24V12.2286H46.2913V14.373H46.4281C46.565 14.0384 46.7323 13.7266 46.93 13.4376C47.1277 13.1487 47.3635 12.8977 47.6372 12.6848C47.9262 12.4567 48.2532 12.2818 48.6182 12.1601C48.9984 12.0232 49.4242 11.9548 49.8957 11.9548C50.4584 11.9548 50.9755 12.0537 51.447 12.2514C51.9184 12.4339 52.3215 12.7152 52.6561 13.0954C52.9906 13.4757 53.2492 13.9395 53.4317 14.487C53.6294 15.0345 53.7283 15.6657 53.7283 16.3805V24H50.352V16.8368C50.352 15.3159 49.6904 14.5555 48.3672 14.5555C48.1087 14.5555 47.8501 14.5935 47.5916 14.6695C47.3483 14.7304 47.1277 14.8368 46.93 14.9889C46.7323 15.1258 46.5726 15.3007 46.451 15.5136C46.3445 15.7265 46.2913 15.9775 46.2913 16.2664V24H42.915ZM58.5785 24L54.3581 12.2286H57.9169L59.4454 17.2702L60.5632 21.194H60.7457L61.8635 17.2702L63.392 12.2286H66.8139L62.5936 24H58.5785ZM73.2155 24.2738C71.2383 24.2738 69.7403 23.7262 68.7213 22.6312C67.7023 21.5362 67.1929 20.0458 67.1929 18.1599C67.1929 17.2018 67.3221 16.3425 67.5807 15.582C67.8544 14.8064 68.2346 14.1524 68.7213 13.6201C69.2232 13.0726 69.8239 12.662 70.5235 12.3882C71.2383 12.0993 72.0368 11.9548 72.9189 11.9548C73.801 11.9548 74.5918 12.0993 75.2914 12.3882C75.991 12.662 76.5842 13.0574 77.0708 13.5745C77.5575 14.0916 77.9301 14.7228 78.1887 15.468C78.4624 16.198 78.5993 17.0193 78.5993 17.9318V18.9355H70.5463V19.1409C70.5463 19.9013 70.7821 20.5172 71.2535 20.9887C71.725 21.445 72.417 21.6731 73.3295 21.6731C74.0291 21.6731 74.6299 21.5438 75.1317 21.2853C75.6336 21.0115 76.0671 20.6541 76.4321 20.2131L78.2571 22.1978C77.8008 22.7605 77.1621 23.2472 76.3408 23.6578C75.5196 24.0684 74.4778 24.2738 73.2155 24.2738ZM72.9417 14.373C72.2117 14.373 71.6262 14.6011 71.1851 15.0573C70.7593 15.4984 70.5463 16.0991 70.5463 16.8596V17.0421H75.2914V16.8596C75.2914 16.0839 75.0785 15.4756 74.6527 15.0345C74.242 14.5935 73.6717 14.373 72.9417 14.373ZM86.9171 10.8826V24H83.4952V10.8826H78.9098V8.07661H91.5025V10.8826H86.9171ZM97.8355 24.2738C95.8584 24.2738 94.3604 23.7262 93.3414 22.6312C92.3224 21.5362 91.8129 20.0458 91.8129 18.1599C91.8129 17.2018 91.9422 16.3425 92.2008 15.582C92.4745 14.8064 92.8547 14.1524 93.3414 13.6201C93.8433 13.0726 94.444 12.662 95.1436 12.3882C95.8584 12.0993 96.6569 11.9548 97.539 11.9548C98.4211 11.9548 99.2119 12.0993 99.9115 12.3882C100.611 12.662 101.204 13.0574 101.691 13.5745C102.178 14.0916 102.55 14.7228 102.809 15.468C103.083 16.198 103.219 17.0193 103.219 17.9318V18.9355H95.1664V19.1409C95.1664 19.9013 95.4022 20.5172 95.8736 20.9887C96.3451 21.445 97.0371 21.6731 97.9496 21.6731C98.6492 21.6731 99.2499 21.5438 99.7518 21.2853C100.254 21.0115 100.687 20.6541 101.052 20.2131L102.877 22.1978C102.421 22.7605 101.782 23.2472 100.961 23.6578C100.14 24.0684 99.0979 24.2738 97.8355 24.2738ZM97.5618 14.373C96.8318 14.373 96.2462 14.6011 95.8052 15.0573C95.3794 15.4984 95.1664 16.0991 95.1664 16.8596V17.0421H99.9115V16.8596C99.9115 16.0839 99.6986 15.4756 99.2728 15.0345C98.8621 14.5935 98.2918 14.373 97.5618 14.373ZM104.534 21.3765H108.138V9.74195H104.534V7.11847H111.514V21.3765H115.119V24H104.534V21.3765Z" fill="#E3001F"/>
<path d="M10.4785 7.91162H23.8301L23.8311 21.2681L21.0107 24.0884L21.0049 24.0825V24.0933H7.64844V10.7368H7.66309L7.65332 10.7271L10.4736 7.90674L10.4785 7.91162ZM12.623 10.0601V19.1187H21.6816V10.0601H12.623Z" fill="#E3001F"/>
<rect x="15.2471" y="11.334" width="1.15678" height="3.03848" rx="0.578391" fill="#E3001F"/>
<rect x="18.0234" y="11.334" width="1.15678" height="3.03848" rx="0.578391" fill="#E3001F"/>
<path d="M19.8303 14.9325C20.1368 14.9325 20.3909 15.1836 20.3269 15.4833C20.2857 15.676 20.2229 15.865 20.1391 16.0472C19.9767 16.4006 19.7386 16.7217 19.4384 16.9922C19.1382 17.2627 18.7818 17.4773 18.3896 17.6237C17.9974 17.7701 17.5771 17.8454 17.1526 17.8454C16.7281 17.8454 16.3077 17.7701 15.9155 17.6237C15.5233 17.4773 15.1669 17.2627 14.8667 16.9922C14.5666 16.7217 14.3284 16.4006 14.166 16.0472C14.0822 15.865 14.0194 15.676 13.9782 15.4833C13.9142 15.1836 14.1684 14.9325 14.4748 14.9325V14.9325C14.7813 14.9325 15.0218 15.1869 15.1179 15.478C15.1388 15.5411 15.1633 15.6034 15.1914 15.6645C15.298 15.8966 15.4544 16.1074 15.6515 16.2851C15.8486 16.4627 16.0827 16.6036 16.3402 16.6997C16.5978 16.7958 16.8738 16.8453 17.1526 16.8453C17.4313 16.8453 17.7074 16.7958 17.9649 16.6997C18.2225 16.6036 18.4565 16.4627 18.6536 16.2851C18.8507 16.1074 19.0071 15.8966 19.1138 15.6645C19.1419 15.6034 19.1664 15.5411 19.1872 15.478C19.2833 15.1869 19.5238 14.9325 19.8303 14.9325V14.9325Z" fill="#E3001F"/>
<rect y="10.5408" width="5.5087" height="2.48615" fill="#E3001F"/>
<rect x="1.25098" y="14.9326" width="4.2577" height="2.48615" fill="#E3001F"/>
</svg>
