<svg width="220" height="50" viewBox="0 0 220 50" fill="none" xmlns="http://www.w3.org/2000/svg">
<rect x="17.8169" y="12.4669" width="5.88833" height="6.78372" transform="rotate(45 17.8169 12.4669)" fill="#E3001F"/>
<rect x="17.8169" y="12.4751" width="22.7198" height="22.7198" fill="#E3001F"/>
<rect x="13.0107" y="17.2803" width="22.7198" height="22.7198" fill="#E3001F"/>
<rect x="36.373" y="31.0312" width="5.88833" height="6.78372" transform="rotate(45 36.373 31.0312)" fill="#E3001F"/>
<rect x="21.4722" y="16.1302" width="15.4087" height="15.4087" fill="white"/>
<rect x="25.9355" y="18.2965" width="1.96766" height="5.1684" rx="0.983832" fill="#E3001F"/>
<rect x="30.6577" y="18.2965" width="1.96766" height="5.1684" rx="0.983832" fill="#E3001F"/>
<path d="M33.7312 24.4176C34.2525 24.4176 34.6848 24.8448 34.5759 25.3546C34.5058 25.6824 34.399 26.0038 34.2565 26.3138C33.9802 26.9149 33.5751 27.4611 33.0645 27.9212C32.5539 28.3813 31.9478 28.7463 31.2806 28.9953C30.6135 29.2443 29.8985 29.3725 29.1764 29.3725C28.4543 29.3725 27.7393 29.2443 27.0722 28.9953C26.405 28.7463 25.7989 28.3813 25.2883 27.9212C24.7777 27.4611 24.3726 26.9149 24.0963 26.3138C23.9538 26.0038 23.847 25.6824 23.7769 25.3546C23.668 24.8448 24.1003 24.4176 24.6216 24.4176C25.143 24.4176 25.552 24.8505 25.7155 25.3455C25.751 25.4529 25.7926 25.5588 25.8404 25.6628C26.0219 26.0575 26.2878 26.4162 26.6231 26.7184C26.9584 27.0205 27.3565 27.2602 27.7946 27.4237C28.2327 27.5872 28.7022 27.6714 29.1764 27.6714C29.6506 27.6714 30.1201 27.5872 30.5582 27.4237C30.9963 27.2602 31.3944 27.0205 31.7297 26.7184C32.065 26.4162 32.3309 26.0575 32.5124 25.6628C32.5602 25.5588 32.6018 25.4529 32.6373 25.3455C32.8008 24.8505 33.2098 24.4176 33.7312 24.4176Z" fill="#E3001F"/>
<path d="M52.4474 40V35.6927H58.2681V17.2219H52.4474V12.9146H69.9093V17.2219H64.0887V35.6927H69.9093V40H52.4474ZM72.9985 40V19.977H78.7416V23.6246H78.9744C79.2072 23.0555 79.4918 22.5251 79.8281 22.0336C80.1644 21.5421 80.5654 21.1153 81.031 20.7531C81.5225 20.365 82.0787 20.0675 82.6996 19.8606C83.3463 19.6278 84.0707 19.5114 84.8726 19.5114C85.8298 19.5114 86.7094 19.6795 87.5113 20.0158C88.3133 20.3262 88.9988 20.8048 89.568 21.4516C90.1371 22.0983 90.5769 22.8873 90.8873 23.8186C91.2236 24.7499 91.3918 25.8235 91.3918 27.0394V40H85.6487V27.8155C85.6487 25.2285 84.5234 23.935 82.2727 23.935C81.833 23.935 81.3932 23.9997 80.9534 24.1291C80.5395 24.2325 80.1644 24.4136 79.8281 24.6723C79.4918 24.9051 79.2201 25.2026 79.0132 25.5648C78.8321 25.927 78.7416 26.3538 78.7416 26.8454V40H72.9985ZM99.6419 40L92.4631 19.977H98.5166L101.116 28.5527L103.018 35.2271H103.328L105.23 28.5527L107.83 19.977H113.65L106.471 40H99.6419ZM124.539 40.4657C121.176 40.4657 118.628 39.5343 116.895 37.6717C115.161 35.8091 114.295 33.2739 114.295 30.0661C114.295 28.4363 114.515 26.9747 114.954 25.6812C115.42 24.3619 116.067 23.2495 116.895 22.3441C117.748 21.4128 118.77 20.7143 119.96 20.2486C121.176 19.7571 122.534 19.5114 124.035 19.5114C125.535 19.5114 126.88 19.7571 128.07 20.2486C129.26 20.7143 130.269 21.3869 131.097 22.2665C131.925 23.146 132.559 24.2196 132.998 25.4872C133.464 26.7289 133.697 28.1259 133.697 29.6781V31.3855H119.999V31.7347C119.999 33.0282 120.4 34.0759 121.202 34.8778C122.004 35.6539 123.181 36.042 124.733 36.042C125.923 36.042 126.945 35.8221 127.799 35.3823C128.652 34.9166 129.39 34.3087 130.01 33.5585L133.115 36.9345C132.339 37.8916 131.252 38.7195 129.855 39.4179C128.458 40.1164 126.686 40.4657 124.539 40.4657ZM124.073 23.6246C122.832 23.6246 121.836 24.0126 121.085 24.7887C120.361 25.5389 119.999 26.5608 119.999 27.8543V28.1647H128.07V27.8543C128.07 26.5349 127.708 25.5001 126.984 24.7499C126.285 23.9997 125.315 23.6246 124.073 23.6246ZM135.816 40V19.977H141.559V23.6246H141.792C142.025 23.0555 142.309 22.5251 142.646 22.0336C142.982 21.5421 143.383 21.1153 143.848 20.7531C144.34 20.365 144.896 20.0675 145.517 19.8606C146.164 19.6278 146.888 19.5114 147.69 19.5114C148.647 19.5114 149.527 19.6795 150.329 20.0158C151.131 20.3262 151.816 20.8048 152.385 21.4516C152.955 22.0983 153.394 22.8873 153.705 23.8186C154.041 24.7499 154.209 25.8235 154.209 27.0394V40H148.466V27.8155C148.466 25.2285 147.341 23.935 145.09 23.935C144.65 23.935 144.211 23.9997 143.771 24.1291C143.357 24.2325 142.982 24.4136 142.646 24.6723C142.309 24.9051 142.038 25.2026 141.831 25.5648C141.65 25.927 141.559 26.3538 141.559 26.8454V40H135.816ZM168.784 17.6875V40H162.964V17.6875H155.164V12.9146H176.584V17.6875H168.784ZM187.357 40.4657C183.993 40.4657 181.445 39.5343 179.712 37.6717C177.979 35.8091 177.112 33.2739 177.112 30.0661C177.112 28.4363 177.332 26.9747 177.772 25.6812C178.238 24.3619 178.884 23.2495 179.712 22.3441C180.566 21.4128 181.588 20.7143 182.778 20.2486C183.993 19.7571 185.352 19.5114 186.852 19.5114C188.352 19.5114 189.698 19.7571 190.888 20.2486C192.078 20.7143 193.087 21.3869 193.914 22.2665C194.742 23.146 195.376 24.2196 195.816 25.4872C196.281 26.7289 196.514 28.1259 196.514 29.6781V31.3855H182.816V31.7347C182.816 33.0282 183.217 34.0759 184.019 34.8778C184.821 35.6539 185.998 36.042 187.551 36.042C188.741 36.042 189.762 35.8221 190.616 35.3823C191.47 34.9166 192.207 34.3087 192.828 33.5585L195.932 36.9345C195.156 37.8916 194.07 38.7195 192.673 39.4179C191.276 40.1164 189.504 40.4657 187.357 40.4657ZM186.891 23.6246C185.649 23.6246 184.653 24.0126 183.903 24.7887C183.179 25.5389 182.816 26.5608 182.816 27.8543V28.1647H190.888V27.8543C190.888 26.5349 190.526 25.5001 189.801 24.7499C189.103 23.9997 188.133 23.6246 186.891 23.6246ZM198.75 35.5375H204.881V15.7473H198.75V11.2848H210.624V35.5375H216.755V40H198.75V35.5375Z" fill="#E3001F"/>
<rect y="16.9471" width="9.37019" height="4.22889" fill="#E3001F"/>
<rect x="2.12793" y="24.4176" width="7.24226" height="4.22889" fill="#E3001F"/>
</svg>
