<svg width="24" height="17" viewBox="0 0 24 17" fill="none" xmlns="http://www.w3.org/2000/svg">
<path d="M10.4785 0.00488281H23.8301L23.8311 13.3613L21.0107 16.1816L21.0049 16.1758V16.1865H7.64844V2.83008H7.66309L7.65332 2.82031L10.4736 0L10.4785 0.00488281ZM12.623 2.15332V11.2119H21.6816V2.15332H12.623Z" fill="#E3001F"/>
<rect x="15.2471" y="3.42725" width="1.15678" height="3.03848" rx="0.578391" fill="#E3001F"/>
<rect x="18.0234" y="3.42725" width="1.15678" height="3.03848" rx="0.578391" fill="#E3001F"/>
<path d="M19.8303 7.02573C20.1368 7.02573 20.3909 7.27684 20.3269 7.57655C20.2857 7.76929 20.2229 7.95824 20.1391 8.14046C19.9767 8.49387 19.7386 8.81499 19.4384 9.08548C19.1382 9.35597 18.7818 9.57054 18.3896 9.71693C17.9974 9.86331 17.5771 9.93866 17.1526 9.93866C16.7281 9.93866 16.3077 9.86331 15.9155 9.71693C15.5233 9.57054 15.1669 9.35597 14.8667 9.08548C14.5666 8.81499 14.3284 8.49387 14.166 8.14046C14.0822 7.95824 14.0194 7.76928 13.9782 7.57655C13.9142 7.27684 14.1684 7.02573 14.4748 7.02573V7.02573C14.7813 7.02573 15.0218 7.2802 15.1179 7.57122C15.1388 7.63438 15.1633 7.69664 15.1914 7.75774C15.298 7.98982 15.4544 8.20069 15.6515 8.37832C15.8486 8.55594 16.0827 8.69684 16.3402 8.79297C16.5978 8.8891 16.8738 8.93858 17.1526 8.93858C17.4313 8.93858 17.7074 8.8891 17.9649 8.79297C18.2225 8.69684 18.4565 8.55594 18.6536 8.37832C18.8507 8.20069 19.0071 7.98982 19.1138 7.75774C19.1419 7.69664 19.1664 7.63438 19.1872 7.57122C19.2833 7.2802 19.5238 7.02573 19.8303 7.02573V7.02573Z" fill="#E3001F"/>
<rect y="2.63403" width="5.5087" height="2.48615" fill="#E3001F"/>
<rect x="1.25098" y="7.02588" width="4.2577" height="2.48615" fill="#E3001F"/>
</svg>
